<?xml version="1.0" encoding="UTF-8"?>
<svg xmlns="http://www.w3.org/2000/svg" xmlns:xlink="http://www.w3.org/1999/xlink" width="512px" height="205px" viewBox="0 0 512 205" version="1.1">
<g id="surface1">
<rect x="0" y="0" width="512" height="205" style="fill:rgb(94.117647%,7.843137%,11.764706%);fill-opacity:1;stroke:none;"/>
<path style=" stroke:none;fill-rule:nonzero;fill:rgb(100%,100%,100%);fill-opacity:1;" d="M 433.273438 47.785156 L 433.273438 16.390625 L 345.511719 16.390625 L 331.0625 121.230469 L 316.789062 16.390625 L 285.140625 16.390625 L 288.675781 44.386719 C 285.027344 37.210938 272.074219 16.390625 243.558594 16.390625 C 243.367188 16.378906 211.871094 16.390625 211.871094 16.390625 L 211.738281 169.203125 L 188.675781 16.390625 L 147.21875 16.378906 L 123.355469 174.707031 L 123.371094 16.390625 L 83.6875 16.390625 L 69.386719 105.328125 L 55.457031 16.390625 L 15.769531 16.390625 L 15.769531 188.519531 L 47.023438 188.519531 L 47.023438 105.554688 L 61.242188 188.519531 L 77.855469 188.519531 L 91.875 105.554688 L 91.875 188.519531 L 152.125 188.519531 L 155.769531 162.046875 L 180.023438 162.046875 L 183.667969 188.519531 L 242.828125 188.558594 L 242.871094 188.558594 L 242.871094 188.519531 L 242.941406 188.519531 L 242.941406 132.65625 L 250.1875 131.605469 L 265.199219 188.558594 L 295.800781 188.558594 L 295.789062 188.519531 L 295.875 188.519531 L 276.175781 121.785156 C 286.148438 114.425781 297.425781 95.769531 294.425781 77.914062 L 294.425781 77.910156 C 294.460938 78.140625 313.023438 188.636719 313.023438 188.636719 L 349.410156 188.523438 L 374.273438 32.515625 L 374.273438 188.523438 L 433.273438 188.523438 L 433.273438 157.570312 L 405.273438 157.570312 L 405.273438 118.097656 L 433.273438 118.097656 L 433.273438 86.671875 L 405.273438 86.671875 L 405.273438 47.785156 Z M 159.449219 134.757812 L 168.039062 61.160156 L 176.9375 134.757812 Z M 250.285156 100.773438 C 247.886719 101.925781 245.386719 102.5 242.941406 102.507812 L 242.941406 47.144531 C 242.980469 47.144531 243.039062 47.140625 243.101562 47.140625 C 245.535156 47.121094 263.789062 47.871094 263.789062 74.515625 C 263.789062 88.453125 257.582031 97.246094 250.285156 100.773438 Z M 496.238281 157.539062 L 496.238281 188.484375 L 438.675781 188.484375 L 438.675781 16.367188 L 469.671875 16.367188 L 469.671875 157.539062 Z M 496.238281 157.539062 "/>
</g>
</svg>
