<svg fill="#000000" xmlns="http://www.w3.org/2000/svg"  viewBox="0 0 24 24" width="128px" height="128px"><path d="M 12 2 C 6.5 2 2 6.5 2 12 C 2 17.5 6.5 22 12 22 C 17.5 22 22 17.5 22 12 C 22 6.5 17.5 2 12 2 Z M 16.5 5.398438 L 12 9.898438 L 7.5 5.398438 C 8.800781 4.5 10.300781 4 12 4 C 13.699219 4 15.199219 4.5 16.5 5.398438 Z M 4 12 C 4 10.300781 4.5 8.800781 5.398438 7.5 L 9.898438 12 L 5.398438 16.5 C 4.5 15.199219 4 13.699219 4 12 Z M 7.5 18.601563 L 12 14.101563 L 16.5 18.601563 C 15.199219 19.5 13.699219 20 12 20 C 10.300781 20 8.800781 19.5 7.5 18.601563 Z M 18.601563 16.5 L 14.101563 12 L 18.601563 7.5 C 19.5 8.800781 20 10.300781 20 12 C 20 13.699219 19.5 15.199219 18.601563 16.5 Z"/></svg>