<svg fill="#000000" xmlns="http://www.w3.org/2000/svg"  viewBox="0 0 26 26" width="128px" height="128px"><path d="M 13 5 C 5.800781 5 0 8.601563 0 13 C 0 17.398438 5.800781 21 13 21 C 20.199219 21 26 17.398438 26 13 C 26 8.601563 20.199219 5 13 5 Z M 13 5.90625 C 19.699219 5.90625 25.09375 9.101563 25.09375 13 C 25.09375 16.898438 19.699219 20.09375 13 20.09375 C 6.300781 20.09375 0.90625 16.898438 0.90625 13 C 0.90625 9.101563 6.300781 5.90625 13 5.90625 Z M 8.90625 7 C 4.90625 7.898438 2 10.207031 2 12.90625 C 2 13.707031 2.1875 14.40625 2.6875 14.90625 C 3.289063 15.804688 4.207031 16.613281 5.40625 17.3125 L 6.59375 17.90625 C 4.394531 14.90625 7.992188 13.992188 9.59375 17.09375 C 10.292969 14.695313 12.394531 15.800781 13.09375 19 C 13.695313 15.898438 15.898438 14.6875 16.5 17.1875 C 18.101563 14.085938 21.59375 15.007813 19.59375 17.90625 C 22.195313 16.804688 23.90625 14.90625 23.90625 12.90625 C 23.90625 10.207031 21.101563 7.898438 17 7 C 20 11 15.707031 13.8125 14.90625 10.3125 L 14.59375 7 L 13.8125 7.90625 L 12.1875 7.90625 L 11.5 7 L 11.1875 10.3125 C 10.386719 13.914063 5.992188 11 9.09375 7 Z"/></svg>