<svg fill="#000000" xmlns="http://www.w3.org/2000/svg"  viewBox="0 0 26 26" width="128px" height="128px"><path d="M 17 14.800781 L 9.300781 14.800781 L 17 7.199219 Z M 19.699219 21.398438 C 21 20.300781 22.101563 19 22.800781 17.398438 L 19.699219 17.398438 Z M 12.898438 2.101563 C 6.898438 2.101563 2.101563 7 2.101563 13 C 2.101563 19 7 23.898438 13 23.898438 C 14.5 23.898438 15.898438 23.601563 17.101563 23.101563 L 17.101563 17.5 L 5.898438 17.5 L 5.898438 16 L 18.5 3.601563 C 16.800781 2.601563 15 2.101563 12.898438 2.101563 Z M 19.800781 4.5 L 19.800781 14.800781 L 23.699219 14.800781 C 23.800781 14.199219 23.898438 13.601563 23.898438 13 C 23.800781 9.601563 22.199219 6.5 19.800781 4.5 Z M 25.898438 13 C 25.898438 20.199219 20.101563 25.898438 13 25.898438 C 5.898438 25.898438 0.101563 20.199219 0.101563 13 C 0.101563 5.800781 5.898438 0.101563 13 0.101563 C 20.101563 0.101563 25.898438 5.800781 25.898438 13 Z M 25.199219 13 C 25.199219 6.300781 19.800781 0.800781 13 0.800781 C 6.300781 0.800781 0.800781 6.300781 0.800781 13 C 0.800781 19.699219 6.300781 25.199219 13 25.199219 C 19.699219 25.199219 25.199219 19.699219 25.199219 13 Z"/></svg>