<svg fill="#000000" xmlns="http://www.w3.org/2000/svg"  viewBox="0 0 48 48" width="128px" height="128px"><path d="M 20.074219 2.8222656 C 15.155343 2.8222656 11.282629 5.4238986 8.7519531 8.6738281 C 6.221277 11.923758 4.8945312 15.801073 4.8945312 18.996094 C 4.8945312 23.79418 5.8710938 25.682342 5.8710938 29.083984 C 5.8710938 32.171302 5.1426414 33.72446 4.2363281 35.628906 C 3.3300148 37.533352 2.2264068 39.780832 2.0039062 43.388672 A 1.5009169 1.5009169 0 0 0 3.8515625 44.939453 L 43.976562 44.960938 A 1.5006231 1.5006231 0 0 0 45.966797 43.457031 C 45.754691 39.814184 44.64871 37.553623 43.738281 35.642578 C 42.827853 33.731533 42.097656 32.180971 42.097656 29.083984 C 42.097656 25.682342 43.074219 23.795133 43.074219 18.996094 C 43.074219 15.801073 41.74552 11.923758 39.214844 8.6738281 C 36.684168 5.4238986 32.811454 2.8222656 27.892578 2.8222656 C 26.203252 2.8222656 25.000203 3.718921 24.068359 4.3007812 L 24.066406 4.3007812 C 24.030986 4.3229523 23.937889 4.3242093 23.900391 4.3007812 C 22.966877 3.7167957 21.76239 2.8222656 20.074219 2.8222656 z M 24.287109 13.933594 C 26.031333 13.927894 28.15791 14.097006 32.996094 14.390625 L 32.996094 21.09375 C 32.637434 21.047047 32.256242 21.015543 31.851562 21.021484 C 31.226374 21.030684 30.560487 21.119284 29.894531 21.339844 C 27.265169 22.210455 25.697266 24.419922 25.697266 24.419922 A 1.0001 1.0001 0 1 0 27.306641 25.605469 C 27.306641 25.605469 27.592239 25.260902 28.021484 24.845703 A 1.502 1.502 0 0 0 29.488281 26.029297 A 1.502 1.502 0 0 0 30.359375 23.306641 C 30.415219 23.285819 30.466602 23.2571 30.523438 23.238281 C 31.326929 22.972171 32.245988 23.02555 32.996094 23.152344 L 32.996094 30.681641 C 32.996094 33.659433 31.537883 36.445933 29.076172 38.158203 L 25.917969 40.353516 C 24.751613 41.163987 23.209966 41.163558 22.044922 40.353516 L 18.886719 38.158203 C 16.424724 36.447194 14.964844 33.659721 14.964844 30.681641 L 14.964844 23.089844 C 15.73037 22.967911 16.652785 22.921478 17.466797 23.1875 L 17.466797 23.185547 C 17.531638 23.20675 17.590726 23.238061 17.654297 23.261719 A 1.502 1.502 0 0 0 18.515625 25.994141 A 1.502 1.502 0 0 0 19.992188 24.763672 C 20.481879 25.221966 20.794922 25.605469 20.794922 25.605469 A 1.0001 1.0001 0 1 0 22.398438 24.410156 C 22.398438 24.410156 20.781873 22.166105 18.087891 21.285156 C 17.406528 21.062485 16.724449 20.973902 16.083984 20.964844 C 15.689446 20.959265 15.317419 20.990012 14.964844 21.033203 L 14.964844 14.394531 C 20.203594 14.117074 22.537133 13.939352 24.287109 13.933594 z M 23.796875 15.009766 C 21.815875 15.009766 20.003906 16.238203 20.003906 18.283203 C 20.003906 19.715203 20.636719 20.123047 20.636719 20.123047 C 20.699719 20.184047 20.762656 20.246594 20.847656 20.308594 L 20.847656 20.738281 C 20.847656 21.418281 21.709859 21.671281 22.005859 21.738281 L 22.005859 22.294922 C 22.004859 22.677922 22.355062 22.988281 22.789062 22.988281 L 25.226562 22.988281 C 25.658562 22.988281 26.009766 22.678922 26.009766 22.294922 L 26.009766 21.738281 C 26.304766 21.671281 27.169922 21.417281 27.169922 20.738281 L 27.169922 20.308594 C 27.253922 20.247594 27.316859 20.185047 27.380859 20.123047 C 27.380859 20.123047 28.013672 19.511203 28.013672 18.283203 C 28.011672 16.238203 26.19875 15.009766 24.21875 15.009766 L 23.796875 15.009766 z M 22.689453 18.767578 C 22.819484 18.763156 22.957609 18.784688 23.099609 18.835938 C 23.563609 18.999938 23.733937 19.592469 23.585938 19.980469 C 23.396937 20.593469 22.825391 20.84025 22.150391 20.65625 C 21.898391 20.57425 21.583422 20.206688 21.857422 19.429688 C 21.983422 19.030687 22.299359 18.780844 22.689453 18.767578 z M 25.304688 18.783203 C 25.688031 18.802234 26.024516 19.028734 26.134766 19.427734 C 26.409766 20.205734 26.135797 20.552297 25.841797 20.654297 C 25.187797 20.859297 24.61825 20.594469 24.40625 19.980469 C 24.28025 19.550469 24.448109 18.957937 24.912109 18.835938 C 25.043859 18.794937 25.176906 18.776859 25.304688 18.783203 z M 24.007812 20.533203 C 24.281813 20.635203 24.746094 21.351234 24.746094 21.740234 C 24.745094 21.924234 24.619219 22.025391 24.449219 22.025391 C 24.217219 22.025391 24.049813 21.638609 24.007812 21.474609 C 24.007812 21.679609 23.838453 22.025391 23.564453 22.025391 C 23.396453 22.025391 23.269531 21.924234 23.269531 21.740234 C 23.269531 21.352234 23.733812 20.595203 24.007812 20.533203 z M 22.634766 33.980469 C 21.753766 33.980469 20.200297 34.666234 19.279297 35.115234 C 19.104297 35.200234 19.002766 35.340281 19.009766 35.488281 C 19.016766 35.636281 19.1305 35.772609 19.3125 35.849609 C 20.3675 36.296609 22.313 37.009766 24 37.009766 C 25.688 37.009766 27.6325 36.296609 28.6875 35.849609 C 28.8655 35.774609 28.975516 35.641094 28.978516 35.496094 C 28.982516 35.352094 28.880078 35.216719 28.705078 35.136719 C 27.726078 34.688719 26.067188 33.980469 25.367188 33.980469 C 24.801188 33.980469 24.443328 34.168891 24.236328 34.337891 C 24.187328 34.377891 24.112156 34.400437 24.035156 34.398438 C 23.959156 34.395437 23.888703 34.367219 23.845703 34.324219 C 23.679703 34.159219 23.338766 33.980469 22.634766 33.980469 z M 40.277344 35.353516 L 40.332031 35.376953 C 40.33514 35.384507 40.33673 35.392851 40.339844 35.400391 C 40.318196 35.384375 40.299075 35.369571 40.277344 35.353516 z"/></svg>