<svg fill="#000000" xmlns="http://www.w3.org/2000/svg"  viewBox="0 0 26 26" width="128px" height="128px" fill-rule="evenodd"><path fill-rule="evenodd" d="M 10.898438 12.300781 C 8.699219 12.800781 2.898438 14.300781 2.199219 15.101563 C 1.5 16 3 22.101563 6.199219 25.800781 C 4.898438 20.699219 3.398438 16.898438 4.101563 16.101563 C 4.398438 15.800781 5.398438 15.199219 6.601563 14.601563 C 6.601563 14.601563 6.5 14.699219 6.5 14.699219 C 5.800781 15.5 6.300781 21.898438 9.398438 25.199219 C 8 20.601563 7.398438 16 8.101563 15.300781 C 8.300781 15 9.101563 14.699219 10 14.398438 C 9.800781 15.300781 9.601563 16.300781 9.601563 17.300781 C 9.601563 20.898438 11.601563 23.800781 12.800781 23.800781 C 14 23.800781 16 20.898438 16 17.300781 C 16 16.199219 15.898438 15.300781 15.601563 14.398438 C 16.5 14.699219 17.300781 15 17.5 15.300781 C 18.199219 16.101563 17.601563 20.601563 16.300781 25.300781 C 19.398438 22 19.898438 15.601563 19.199219 14.800781 C 19.199219 14.800781 19.101563 14.699219 19.101563 14.699219 C 20.300781 15.300781 21.300781 15.898438 21.601563 16.199219 C 22.300781 17.101563 20.800781 20.800781 19.5 25.898438 C 22.601563 22.199219 24.199219 16.101563 23.398438 15.199219 C 22.699219 14.398438 17 12.898438 14.699219 12.398438 C 14.699219 12.300781 14.601563 12.300781 14.601563 12.199219 C 16.800781 12.898438 20.398438 13.300781 21.601563 12.300781 C 23.5 10.601563 21.101563 2.898438 19.601563 1.398438 C 19.800781 3 22.199219 11.601563 18.699219 11.699219 C 18.398438 11.699219 18.101563 11.699219 17.699219 11.699219 C 19.199219 8.101563 18.101563 3.898438 15.101563 0.199219 C 16.199219 2 18 9.5 16.199219 11.101563 C 15.699219 11.601563 14.699219 11.199219 13.300781 11 C 14.199219 10.601563 14.898438 9.5 14.898438 8.199219 C 14.898438 6.601563 13.898438 5.199219 12.699219 5.199219 C 11.5 5.199219 10.5 6.5 10.5 8.199219 C 10.5 9.5 11.199219 10.601563 12.101563 11 C 10.699219 11.101563 9.699219 11.5 9.199219 11.101563 C 7.398438 9.5 9.199219 2 10.300781 0.199219 C 7.5 3.800781 6.398438 8 7.898438 11.601563 C 7.601563 11.601563 7.199219 11.601563 6.898438 11.601563 C 3.398438 11.5 5.800781 2.898438 6 1.300781 C 4.5 2.800781 2.101563 10.5 4 12.199219 C 5.101563 13.199219 8.699219 12.800781 11 12.101563 C 11 12.199219 10.898438 12.300781 10.898438 12.300781"/></svg>