<svg fill="#000000" xmlns="http://www.w3.org/2000/svg"  viewBox="0 0 48 48" width="128px" height="128px"><path d="M 6.7265625 1.5273438 C 6.1135625 1.6033438 5.6100313 2.0465312 5.4570312 2.6445312 C 2.9950312 12.258531 6.61125 20.553703 8.15625 24.095703 C 8.16125 24.107703 8.1688281 24.119859 8.1738281 24.130859 C 8.7508281 25.366859 9.1008437 26.914562 9.2148438 28.726562 L 9.640625 36.033203 C 9.640625 37.332203 10.175391 38.585594 11.150391 39.558594 C 11.224391 39.632594 11.306531 39.698859 11.394531 39.755859 L 15.4375 42.384766 C 15.4505 42.394766 15.464562 42.406016 15.476562 42.416016 C 15.533563 42.473016 15.594062 42.524313 15.664062 42.570312 C 15.994063 42.838313 16.296313 43.083641 16.570312 43.306641 C 19.327313 45.552641 19.865437 45.952125 21.523438 45.953125 C 22.425438 46.003125 23.467406 46.021484 24.441406 46.021484 C 25.191406 46.021484 25.901656 46.010141 26.472656 45.994141 C 26.513656 45.995141 26.552797 45.996094 26.591797 45.996094 C 28.273797 45.996094 29.205563 45.236031 31.851562 43.082031 C 32.453562 42.592031 33.185734 41.997641 34.052734 41.306641 L 36.603516 39.648438 C 36.691516 39.590438 36.771703 39.525172 36.845703 39.451172 C 37.820703 38.477172 38.356516 37.224672 38.353516 36.013672 L 38.783203 28.732422 C 38.897203 26.914422 39.247219 25.365906 39.824219 24.128906 C 39.829219 24.117906 39.834844 24.107703 39.839844 24.095703 C 41.514844 20.253703 45.000594 12.256547 42.433594 2.6855469 C 42.274594 2.0925469 41.768203 1.6569844 41.158203 1.5839844 C 40.543203 1.5109844 39.955062 1.819375 39.664062 2.359375 C 38.557063 4.407375 37.445422 6.1834219 36.357422 7.7324219 C 34.619422 4.8324219 31.11425 1.9824219 24.03125 1.9824219 C 16.72725 1.9824219 13.27725 5.1091719 11.65625 7.8261719 C 10.52625 6.2391719 9.3725156 4.4177344 8.2285156 2.3027344 C 7.9365156 1.7607344 7.3435625 1.4483438 6.7265625 1.5273438 z M 24.029297 4.984375 C 29.386297 4.984375 32.853797 6.8047188 34.341797 10.386719 C 31.842797 13.443719 29.585563 15.365469 27.976562 16.730469 C 27.319562 17.288469 26.749828 17.77275 26.298828 18.21875 C 25.212828 19.17575 24.803359 20.506453 24.568359 21.564453 L 24 24.132812 L 23.427734 21.5625 C 23.191734 20.5035 22.781219 19.17175 21.699219 18.21875 C 21.245219 17.76975 20.666047 17.279844 19.998047 16.714844 C 18.396047 15.358844 16.160359 13.461422 13.693359 10.482422 C 15.155359 6.8424219 18.621297 4.984375 24.029297 4.984375 z M 17.28125 22.013672 C 19.18525 22.013672 21.761719 25.005859 21.761719 25.005859 L 18.402344 25.005859 C 16.498344 25.005859 15.042969 24.106031 15.042969 23.957031 C 15.042969 23.059031 15.37725 22.013672 17.28125 22.013672 z M 30.722656 22.013672 C 32.626656 22.013672 32.962891 23.059031 32.962891 23.957031 C 32.962891 24.106031 31.505562 25.005859 29.601562 25.005859 L 26.242188 25.005859 C 26.242188 25.005859 28.818656 22.013672 30.722656 22.013672 z M 30.710938 29.019531 L 30.197266 29.984375 C 30.082266 30.200375 30.022484 30.4425 30.021484 30.6875 L 30 40.720703 C 29.987 40.731703 29.968078 40.746813 29.955078 40.757812 C 27.571078 42.698813 27.139937 42.995094 26.460938 42.996094 C 25.118938 43.032094 23.147672 43.041078 21.638672 42.955078 L 21.578125 42.951172 L 21.519531 42.953125 C 20.900531 42.969125 20.902844 42.967469 18.464844 40.980469 C 18.311844 40.856469 18.149469 40.725891 17.980469 40.587891 C 17.964469 38.480891 17.981766 31.593844 18.009766 30.839844 C 18.037766 30.544844 17.980984 30.242609 17.833984 29.974609 L 17.320312 29.03125 C 19.655313 29.81425 21.656891 30.898047 22.962891 32.123047 C 23.007891 32.167047 23.057375 32.208094 23.109375 32.246094 C 23.226375 32.333094 23.354281 32.402172 23.488281 32.451172 C 23.653281 32.513172 23.825047 32.541969 23.998047 32.542969 L 24.003906 32.542969 C 24.183906 32.542969 24.363156 32.510313 24.535156 32.445312 C 24.661156 32.397312 24.781578 32.332953 24.892578 32.251953 C 24.946578 32.211953 24.995969 32.168047 25.042969 32.123047 C 26.356969 30.892047 28.367937 29.803531 30.710938 29.019531 z M 23.890625 34.212891 C 22.327625 34.212891 21.069094 34.51425 20.246094 34.78125 C 19.973094 34.86925 19.751625 35.075844 19.640625 35.339844 C 19.529625 35.604844 19.539969 35.903156 19.667969 36.160156 L 19.751953 36.328125 C 19.969953 36.764125 20.4745 36.973266 20.9375 36.822266 C 21.5905 36.609266 22.595203 36.355469 23.783203 36.355469 C 25.128203 36.355469 26.195281 36.598594 26.863281 36.808594 C 27.325281 36.953594 27.822063 36.743547 28.039062 36.310547 L 28.121094 36.148438 C 28.250094 35.890437 28.258484 35.588266 28.146484 35.322266 C 28.033484 35.056266 27.808203 34.853578 27.533203 34.767578 C 26.698203 34.504578 25.424625 34.212891 23.890625 34.212891 z"/></svg>